<?xml version="1.0" encoding="utf-8"?>
<!-- Generator: Adobe Illustrator 26.0.3, SVG Export Plug-In . SVG Version: 6.00 Build 0)  -->
<svg version="1.1" id="Livello_1" xmlns="http://www.w3.org/2000/svg" xmlns:xlink="http://www.w3.org/1999/xlink" x="0px" y="0px"
	 viewBox="0 0 100 100" style="enable-background:new 0 0 100 100;" xml:space="preserve">
<style type="text/css">
	.st0{fill:#BB7BFF;}
	.st1{fill:#ECD5FF;}
	.st2{fill:#DDB7FF;}
	.st3{fill:#A049FC;}
	.st4{fill:#7C23CD;}
</style>
<polygon class="st0" points="45.5,24 62.1,24 77.4,77 62.1,77 "/>
<polygon class="st1" points="38.6,24.4 31,54 54.1,54 43.5,23.4 "/>
<path class="st2" d="M40.6,16c3.7,0,9.5,0,14.6,0c6.2,0,11.7,4.1,13.4,10.2v0c3.8,13.4,7.9,26.7,11.8,40.1c0.6,2,1.2,4.1,1.9,6.2
	c0.4,1.2,1.5,2,2.7,2H86c1.6,0,2.8,1.3,2.8,2.8V81c0,1.6-1.3,2.8-2.8,2.8H51.9c-1.6,0-2.8-1.3-2.8-2.8v-4c0-1.6,1.3-2.8,2.8-2.8h0
	c1.9,0,3.3-1.8,2.7-3.6l-2.1-6.9C52.1,62,50.7,61,49.2,61H34.9c-1.5,0-2.9,1-3.3,2.4L29.2,71c-0.5,1.6,0.7,3.3,2.4,3.3h0
	c1.4,0,2.5,1.1,2.5,2.5v4.6c0,1.4-1.1,2.5-2.5,2.5H13.7c-1.4,0-2.5-1.1-2.5-2.5v-4.7c0-1.4,1.1-2.5,2.5-2.5l2.3,0
	c1.1,0,2-0.7,2.4-1.7c0-0.1,0-0.1,0.1-0.2c4.7-14.8,14-42.9,17.2-52.8C36.4,17.4,38.4,16,40.6,16z M72.1,71.9
	c-4.5-15-8.9-29.8-13.3-44.7c-0.2-0.7-0.9-1.3-1.7-1.3h-3.2c-1.2,0-2,1.1-1.7,2.3c4.5,15.1,8.9,29.9,13.3,44.7
	c0.2,0.7,0.9,1.3,1.7,1.3h3.2C71.6,74.2,72.4,73,72.1,71.9z M41.3,33.1c-1.7,5.3-3.4,10.6-5.1,15.9c-0.3,1,0.4,2,1.5,2l9.1,0
	c1,0,1.8-1,1.5-2c-1.3-4.5-3.7-12-5-16C42.9,32.2,41.6,32.2,41.3,33.1z"/>
<g>
	<path class="st3" d="M74.6,21.2c2.2-2.1,6-1.5,7.8,0.7c2.1,2.6,2.5,7.5-1.1,11.9c-1.6,1.9-3.5,3.4-5.7,4.5
		c-0.5,0.3-1.2,0.1-1.5-0.4l0,0c-0.3-0.6-0.2-1.3,0.4-1.6c2.5-1.4,4.4-3.1,5.2-5.5c0.4-1-0.4-2.1-1.5-2.1c-0.8,0-1.6-0.1-2.3-0.4
		c-1.4-0.5-2.2-1.4-2.6-2.5C72.9,24.2,73.2,22.5,74.6,21.2z M65.6,21.2c2.2-2.1,6-1.5,7.8,0.7c2.1,2.6,2.5,7.5-1.1,11.9
		c-1.6,1.9-3.5,3.4-5.7,4.5c-0.5,0.3-1.2,0.1-1.5-0.4h0c-0.3-0.6-0.2-1.3,0.4-1.6c2.5-1.4,4.4-3.1,5.2-5.5c0.4-1-0.4-2.1-1.5-2.1
		c-0.8,0-1.6-0.1-2.3-0.4c-1.4-0.5-2.2-1.4-2.6-2.5C63.9,24.2,64.2,22.5,65.6,21.2z"/>
</g>
<g>
	<path class="st4" d="M15,79.6c-2.2,2.1-6,1.5-7.8-0.7C5.1,76.3,4.7,71.4,8.4,67c1.6-1.9,3.5-3.4,5.7-4.5c0.5-0.3,1.2-0.1,1.5,0.4
		l0,0c0.3,0.6,0.2,1.3-0.4,1.6c-2.5,1.4-4.4,3.1-5.2,5.5c-0.4,1,0.4,2.1,1.5,2.1c0.8,0,1.6,0.1,2.3,0.4c1.4,0.5,2.2,1.4,2.6,2.5
		C16.7,76.6,16.5,78.2,15,79.6z M23.9,79.6c-2.2,2.1-6,1.5-7.8-0.7c-2.1-2.6-2.5-7.5,1.1-11.9c1.6-1.9,3.5-3.4,5.7-4.5
		c0.5-0.3,1.2-0.1,1.5,0.4l0,0c0.3,0.6,0.2,1.3-0.4,1.6c-2.5,1.4-4.4,3.1-5.2,5.5c-0.4,1,0.4,2.1,1.5,2.1c0.8,0,1.6,0.1,2.3,0.4
		c1.4,0.5,2.2,1.4,2.6,2.5C25.5,76.6,25.3,78.2,23.9,79.6z"/>
</g>
</svg>
